<?xml version="1.0" encoding="utf-8"?>
<svg version="1.2" baseProfile="tiny" xmlns="http://www.w3.org/2000/svg" xmlns:xlink="http://www.w3.org/1999/xlink"
	 x="0px" y="0px" viewBox="0 0 64 64" xml:space="preserve">
<g>
	<path fill-rule="evenodd" fill="#010101" d="M40.3,32.5c5.6-5.6,16-16.4,20.4-24.4l-1.9-1.8l-14,15c-0.1,0.5-0.3,1.1-0.7,1.5L43,24
		c-1,1.1-2.8,1-3.8,0c-1.1-1-1.3-2.7-0.3-3.8l1.2-1.3c0.4-0.4,0.9-0.7,1.4-0.8l14-15l-1.7-1.6C46.1,6.6,36,17.7,30.9,23.7
		C30.9,23.7,40.3,32.5,40.3,32.5z M58.8,4.4L43.5,20.8c0.1,0.4,0,0.8-0.3,1L42,23c-0.5,0.5-1.3,0.5-1.9-0.1l0,0
		c-0.6-0.5-0.6-1.4-0.2-1.8l1.2-1.3c0.3-0.3,0.6-0.4,1-0.3L57.5,3.2L55,0.9c2.4-1.1,4.5-1.3,6.1-0.1c1.3,1.4,1.3,3.5,0.4,6
		C61.4,6.8,58.8,4.4,58.8,4.4z M15.7,53.5l0.4-0.5L14,51l-2.1-2l-0.4,0.5c-0.1,0.1-0.2,0.3-0.1,0.5l-7.1,5.4c-0.3,2.8-1,5.8-2.3,8.5
		l5.8-6.3c-0.4-0.4-0.4-1,0-1.4c0.4-0.4,1.1-0.4,1.5,0c0.4,0.4,0.5,1.1,0.1,1.5c-0.4,0.4-1,0.4-1.4,0.1L2.1,64
		c2.6-1.5,5.5-2.4,8.3-2.9l4.9-7.5C15.4,53.6,15.6,53.6,15.7,53.5z M18.5,52.5l17-16.9l0.3,0.2c0.4,0.3,0.9,0.3,1.3,0l0,0l-9.3-8.6
		l-0.1,0.1c-0.2,0.2-0.3,0.4-0.3,0.7c0,0.3,0.1,0.5,0.3,0.7l0.3,0.3L12.2,46.6c-0.3,0.3,0,0.9,0.5,1.4l4.4,4.1
		C17.6,52.6,18.3,52.7,18.5,52.5z M37.9,35c0.5-0.5,1.1-1.1,1.8-1.7l-9.4-8.8c-0.6,0.7-1.2,1.3-1.6,1.9L37.9,35z"/>
</g>
</svg>
